<?xml version="1.0" encoding="utf-8"?>
<!-- Generator: Adobe Illustrator 15.0.0, SVG Export Plug-In  -->
<!DOCTYPE svg PUBLIC "-//W3C//DTD SVG 1.1//EN" "http://www.w3.org/Graphics/SVG/1.1/DTD/svg11.dtd" [
	<!ENTITY ns_flows "http://ns.adobe.com/Flows/1.0/">
]>
<svg version="1.1"
	 xmlns="http://www.w3.org/2000/svg" xmlns:xlink="http://www.w3.org/1999/xlink" xmlns:a="http://ns.adobe.com/AdobeSVGViewerExtensions/3.0/"
	 x="0px" y="0px" width="200px" height="33px" viewBox="-5.538 -3.259 200 33"
	 overflow="visible" enable-background="new -5.538 -3.259 200 33" xml:space="preserve">
<defs>
</defs>
<path fill="#FFFFFF" d="M19.324,7.343c0,2.812-2.301,7.379-8.255,7.379H8.73v6.466h2.338v4.566H0v-4.566h2.74V4.603H0V0h11.507
	C16.548,0,19.324,3.689,19.324,7.343z M12.895,7.343c0-1.352-0.95-2.74-2.776-2.74H8.73v5.552h1.388
	C11.945,10.155,12.895,8.731,12.895,7.343z"/>
<path fill="#FFFFFF" d="M39.451,16.183h4.603l-1.388,9.607H21.186v-4.603h2.74V4.786h-2.74V0.183h10.995v4.603h-2.776v16.402h6.868
	c2.594,0,2.922-3.178,2.922-3.178L39.451,16.183z"/>
<path fill="#FFFFFF" d="M60.088,0.219c0,0,8.621,20.091,9.096,20.968h2.74v4.566H61.403v-4.53h1.352
	c-0.438-0.913-0.804-1.826-1.279-2.776h-7.232l-1.023,2.776h1.352v4.53h-9.096v-4.566h2.74C49.093,18.448,56.8,0.219,56.8,0.219
	h3.361H60.088z M59.869,13.881l-2.155-5.078l-2.009,5.078H59.869z"/>
<path fill="#FFFFFF" d="M91.063,0.11l2.776,8.694h-4.566l-0.438-1.388c-0.475-0.876-1.388-2.703-1.863-2.703h-2.776V21.15h2.338
	v4.604H75.977V21.15h2.301V4.712h-2.301c-0.913,0-1.863,1.827-2.301,2.703l-0.438,1.388h-4.566l2.776-8.694H91.063z"/>
<path fill="#FFFFFF" d="M119.628,15.233l-1.352,10.521H96.76v-4.566h2.302V4.712H96.76V0.146h20.128l2.302,8.694h-4.603
	c-0.438-1.827-0.914-4.128-3.653-4.128h-5.954v5.516h3.214V8.365h4.566v8.256h-4.566v-1.827h-3.214v6.393h7.342
	c1.352,0,2.266-3.215,2.74-5.955H119.628z"/>
<path fill="#FFFFFF" d="M141.69,7.343c0,2.812-2.301,7.379-8.256,7.379h-2.338v6.466h2.338v4.566h-11.068v-4.566h2.74V4.603h-2.74V0
	h11.507C138.914,0,141.69,3.689,141.69,7.343z M135.261,7.343c0-1.352-0.95-2.74-2.776-2.74h-1.389v5.552h1.389
	C134.311,10.155,135.261,8.731,135.261,7.343z"/>
<path fill="#FFFFFF" d="M152.429,0.219c0,0,8.621,20.091,9.096,20.968h2.739v4.566h-10.521v-4.53h1.352
	c-0.438-0.913-0.804-1.826-1.278-2.776h-7.232l-1.023,2.776h1.352v4.53h-9.096v-4.566h2.74c0.876-2.74,8.584-20.968,8.584-20.968
	h3.361H152.429z M152.209,13.881l-2.155-5.078l-2.009,5.078H152.209z"/>
<path fill="#FFFFFF" d="M185.814,16.183h4.604l-1.389,9.607h-21.479v-4.603h2.74V4.786h-2.74V0.183h10.996v4.603h-2.776v16.402
	h6.867c2.594,0,2.923-3.178,2.923-3.178L185.814,16.183z"/>
</svg>
