<?xml version="1.0" encoding="utf-8"?>
<!-- Generator: Adobe Illustrator 15.0.0, SVG Export Plug-In  -->
<!DOCTYPE svg PUBLIC "-//W3C//DTD SVG 1.1//EN" "http://www.w3.org/Graphics/SVG/1.1/DTD/svg11.dtd" [
	<!ENTITY ns_flows "http://ns.adobe.com/Flows/1.0/">
]>
<svg version="1.1"
	 xmlns="http://www.w3.org/2000/svg" xmlns:xlink="http://www.w3.org/1999/xlink" xmlns:a="http://ns.adobe.com/AdobeSVGViewerExtensions/3.0/"
	 x="0px" y="0px" width="1000px" height="278px" viewBox="-18.835 -9.058 1000 278"
	 overflow="visible" enable-background="new -18.835 -9.058 1000 278" xml:space="preserve">
<defs>
</defs>
<g>
	<path fill="#FFFFFF" d="M628.11,256.583c-8.355,0-17.302-5.075-17.302-12.63c0-13.648,2.764-29.565,5.436-44.959
		c0.354-2.039,0.707-4.071,1.053-6.092c-7.199-2.03-10.492-5.993-10.492-8.954c0-1.982,1.65-4.297,6.304-4.297
		c1.964,0,4.035,0.312,6.296,0.951c6.959-41.389,16.121-80.633,28.795-123.373c1.334-5.025,5.437-7.928,11.247-7.928
		c9.88,0,22.627,8.551,22.627,17.633c0,0.749,0,1.862-0.41,2.782c-8.625,31.548-18.953,71.755-28.431,110.672
		c37.896-12.069,61.254-60.526,61.254-99.453c0-14.162-2.476-26.847-7.357-37.713c-7.146-3.487-15.438-5.328-24.02-5.328
		c-26.791,0-53.645,19.654-66.822,48.906c-1.761,3.881-4.438,5.767-8.187,5.767c-9.141,0-19.96-13.534-19.96-24.967
		c0-8.288,8.817-20.428,21.94-30.209c9.232-6.881,28.616-18.425,54.698-18.425c22.402,0,41.503,7.691,55.235,22.243
		c13.997,14.832,21.396,35.831,21.396,60.727c0,46.062-28.05,95.637-89.636,95.637h-2.626c-5.519,24.481-9.514,42.789-11.099,52.581
		C637.324,254.189,633.61,256.583,628.11,256.583z"/>
	<path fill="#FFFFFF" d="M664.779,20.262c44.333,0,75.335,31.005,75.335,81.674c0,45.336-27.667,94.341-88.34,94.341
		c-1.33,0-2.332,0-3.662,0c-5.34,23.672-9.67,43.339-11.342,53.67c-0.66,3.669-4.33,5.341-8.66,5.341
		c-7.338,0-16.006-4.338-16.006-11.334c0-15.672,3.67-34.337,6.67-52.006c-7.004-1.672-10.674-5.341-10.674-7.999
		c0-1.672,1.672-3.001,5.008-3.001c1.997,0,4.329,0.335,7.33,1.329c6.001-36,14.668-76.337,29.004-124.678
		c1.328-5.002,5.332-7,10.004-7c9.328,0,21.331,7.999,21.331,16.336c0,0.665,0,1.664-0.335,2.332
		c-9.662,35.335-20.336,77.344-29.003,113.009c38.34-10.665,64.343-58.333,64.343-101.341c0-13.666-2.332-27.002-7.664-38.67
		c-8.008-4.003-16.676-5.667-25.009-5.667c-26.337,0-54.338,19.333-68.004,49.67c-1.663,3.665-4.003,5.002-7.005,5.002
		c-7.998,0-18.664-12.337-18.664-23.671C589.436,52.931,621.44,20.262,664.779,20.262 M664.779,17.67
		c-44.242,0-77.936,33.277-77.936,49.93c0,12.272,11.324,26.264,21.257,26.264c4.25,0,7.401-2.195,9.365-6.524
		c12.772-28.352,39.765-48.149,65.644-48.149c8.216,0,16.156,1.724,23.028,4.993c4.68,10.603,7.052,22.962,7.052,36.752
		c0,20.798-6.349,43.198-17.418,61.455c-10.719,17.678-25.048,30.308-40.719,36.007c9.312-38.15,19.39-77.349,27.837-108.252
		c0.48-1.149,0.48-2.424,0.48-3.21c0-10.017-13.379-18.929-23.924-18.929c-6.43,0-10.982,3.24-12.499,8.889
		c-12.543,42.297-21.648,81.181-28.586,122.1c-1.847-0.43-3.583-0.641-5.253-0.641c-5.25,0-7.601,2.81-7.601,5.594
		c0,3.936,4.139,7.801,10.319,9.854c-0.283,1.65-0.571,3.308-0.859,4.97c-2.683,15.447-5.456,31.421-5.456,45.181
		c0,8.603,9.654,13.927,18.599,13.927c6.086,0,10.382-2.864,11.212-7.475c1.565-9.669,5.468-27.584,10.863-51.536h1.589
		c28.617,0,52.456-10.766,68.938-31.131c13.979-17.272,21.995-41.257,21.995-65.803c0-25.233-7.521-46.54-21.75-61.617
		C706.973,25.502,687.547,17.67,664.779,17.67L664.779,17.67z"/>
</g>
<g>
	<path fill="#FFFFFF" d="M817.454,256.249c-8.95,0-23.964-4.153-23.964-31.971c0-0.081,0-0.164,0-0.247
		c-10.882,20.562-22.647,32.218-32.706,32.218c-17.137,0-26.965-16.996-26.965-46.632c0-25.854,7.506-57.493,19.589-82.573
		c13.898-28.85,31.434-44.738,49.376-44.738c13.811,0,22.294,13.947,23.52,24.67h0.82c9.438,0,19.626,7.887,19.626,20.629
		c0,1.701,0,3.461-0.35,5.247c-3.534,16.621-7.476,32.263-10.954,46.063c-5.415,21.486-9.692,38.458-9.692,48.037
		c0,3.398,0.885,7.029,3.368,7.029c7,0,19.44-23.68,31.842-49.27c1.7-3.755,4.652-6.397,7.166-6.397c1.64,0,3.294,1.432,3.294,4.631
		c0,1.055-0.188,3.261-1.442,6.179l-0.421,1.059C852.119,234.021,834.587,256.249,817.454,256.249z M807.792,104.235
		c-9.195,0-19.578,15.486-28.486,42.489c-7.593,23.016-12.896,51.48-12.896,69.221c0,9.561,1.596,15.044,4.378,15.044
		c10.733,0,25.38-29.088,34.067-67.661l10.642-47.862C815.47,107.596,813.161,104.235,807.792,104.235z"/>
	<path fill="#FFFFFF" d="M802.784,83.602c13.34,0,21.674,14.335,22.334,24.67h2.006c8.334,0,18.33,7,18.33,19.333
		c0,1.672,0,3.335-0.326,4.998c-9.002,42.344-20.67,78.344-20.67,94.35c0,4.998,1.664,8.325,4.664,8.325
		c7.004,0,17.336-17.661,33.008-50c1.662-3.669,4.329-5.667,6-5.667c0.996,0,1.998,1.003,1.998,3.335
		c0,1.337-0.334,3.335-1.337,5.667c-4.664,11.668-25.669,66.34-51.337,66.34c-10.332,0-22.668-5.666-22.668-30.675
		c0-1.663,0-3.995,0.334-6.335c-11,22.676-23.671,37.01-34.336,37.01c-18.004,0-25.669-19.341-25.669-45.336
		C735.115,158.941,764.453,83.602,802.784,83.602 M770.788,232.285c12.33,0,26.998-31.67,35.332-68.672l10.674-48.006
		c0-5.667-1.004-12.667-9.002-12.667c-22.342,0-42.678,78.009-42.678,113.006C765.114,225.95,766.785,232.285,770.788,232.285
		 M802.784,81.009c-18.467,0-36.417,16.149-50.544,45.471c-12.162,25.245-19.718,57.1-19.718,83.136
		c0,30.459,10.301,47.929,28.262,47.929c9.823,0,21.062-10.333,31.551-28.726c0.626,9.694,3.324,17.072,8.043,21.973
		c4.256,4.418,10.16,6.753,17.076,6.753c11.55,0,23.319-9.675,34.983-28.755c9.045-14.797,15.55-31.146,18.327-38.128l0.422-1.059
		c0.989-2.311,1.534-4.674,1.534-6.658c0-4.072-2.38-5.928-4.591-5.928c-2.998,0-6.426,2.941-8.347,7.157
		c-8.602,17.749-14.645,29.109-19.591,36.831c-6.752,10.541-9.991,11.679-11.07,11.679c-1.2,0-2.071-2.411-2.071-5.732
		c0-9.418,4.26-26.321,9.653-47.721c3.48-13.812,7.426-29.465,10.96-46.09c0.383-1.95,0.383-3.773,0.383-5.537
		c0-13.404-10.639-21.753-20.612-21.923C825.691,94.635,816.864,81.009,802.784,81.009L802.784,81.009z M770.788,229.692
		c-0.857,0-3.081-2.47-3.081-13.747c0-17.618,5.275-45.915,12.83-68.814c8.593-26.048,18.781-41.599,27.255-41.599
		c3.804,0,6.352,1.675,6.408,9.795l-10.611,47.724C794.194,204.762,779.533,229.692,770.788,229.692L770.788,229.692z"/>
</g>
<g>
	<path fill="#FFFFFF" d="M891.467,257.244c-21.289,0-31.638-16.888-31.638-51.63c0-17.723,2.59-40.014,7.697-66.255
		c7.334-39.667,15.572-71.208,24.483-93.739c11.633-29.411,24.796-44.324,39.125-44.324c6.312,0,11.64,3.469,14.224,6.985
		c9.551,5.58,15.073,13.123,15.073,34.653c0,45.751-24.4,129.773-64.27,129.773c-0.531,0-1.066-0.016-1.603-0.046
		c-2.746,17.713-4.138,31.485-4.138,40.951c0,13.813,3.603,19.708,12.044,19.708c16.865,0,37.14-25.204,48.841-48.622
		c2.261-4.968,5.044-5.716,6.5-5.716c1.806,0,3.628,1.535,3.628,4.966c0,1.562-0.392,3.043-1.069,5.074
		C948.95,217.394,920.052,257.244,891.467,257.244z M938.461,17.957c-10.988,8.874-31.304,82.023-41.757,141.905
		c25.642-24.561,42.471-92.991,42.471-129.599C939.175,25.693,938.929,21.483,938.461,17.957z"/>
	<path fill="#FFFFFF" d="M931.135,2.593c6.002,0,11,3.335,13.332,6.67c8.668,4.999,14.669,11.334,14.669,33.671
		c0,44.965-24.211,128.477-62.974,128.477c-0.894,0-1.79-0.044-2.698-0.134c-2.667,17.002-4.338,32.005-4.338,42.336
		c0,14.334,4.003,21.004,13.34,21.004c17.669,0,38.34-26.002,50-49.339c1.671-3.669,3.669-4.999,5.341-4.999
		c1.329,0,2.332,1.33,2.332,3.67c0,1.329-0.334,2.658-1.003,4.664c-10.331,25.668-39.001,67.335-67.669,67.335
		c-22.668,0-30.342-20.336-30.342-50.334c0-19.007,3.001-42.001,7.674-66.007C881.127,72.933,900.803,2.593,931.135,2.593
		 M894.801,163.279c26.998-22.008,45.67-94.011,45.67-133.016c0-5.333-0.334-10.335-1.002-14.335
		C927.466,19.598,905.133,102.271,894.801,163.279 M931.135,0c-8.024,0-15.696,4.366-22.802,12.975
		c-6.122,7.417-12.02,18.24-17.528,32.168c-8.941,22.607-17.203,54.231-24.555,93.992c-5.119,26.298-7.718,48.673-7.718,66.479
		c0,16.6,2.283,28.913,6.98,37.645c5.454,10.141,14.187,15.282,25.954,15.282c17.052,0,32.606-13.551,42.653-24.918
		c13.124-14.85,22.771-32.487,27.421-44.042l0.029-0.073l0.024-0.074c0.702-2.104,1.137-3.754,1.137-5.484
		c0-4.303-2.553-6.263-4.925-6.263c-1.763,0-5.101,0.842-7.68,6.474c-11.897,23.793-32.081,47.864-47.661,47.864
		c-5.582,0-10.747-2.23-10.747-18.411c0-9.196,1.327-22.515,3.946-39.613c0.166,0.003,0.332,0.004,0.497,0.004
		c9.886,0,19.346-4.914,28.115-14.604c7.5-8.288,14.332-19.855,20.305-34.378c10.416-25.326,17.146-57.546,17.146-82.086
		c0-21.986-5.671-29.837-15.49-35.639C943.585,3.825,938.201,0,931.135,0L931.135,0z M898.729,155.87
		c5.204-28.862,12.634-60.831,20.269-87.043c9.167-31.471,15.264-43.31,18.503-47.76c0.249,2.788,0.378,5.895,0.378,9.196
		c0,19.728-4.824,47.357-12.592,72.105C917.796,126.236,908.526,144.836,898.729,155.87L898.729,155.87z"/>
</g>
<g>
	<g>
		<g>
			<path fill="#FFFFFF" d="M41.263,256.583c-8.354,0-17.299-5.075-17.299-12.63c0-13.651,2.765-29.573,5.438-44.971
				c0.353-2.035,0.706-4.063,1.05-6.08c-7.196-2.03-10.488-5.992-10.488-8.954c0-1.982,1.65-4.297,6.299-4.297
				c1.966,0,4.038,0.312,6.296,0.951c6.958-41.382,16.119-80.626,28.795-123.373c1.339-5.025,5.44-7.928,11.243-7.928
				c9.883,0,22.635,8.551,22.635,17.633c0,0.749,0,1.862-0.409,2.781c-8.56,31.282-18.889,71.491-28.432,110.672
				c37.894-12.07,61.249-60.526,61.249-99.453c0-14.157-2.477-26.842-7.362-37.714c-7.137-3.486-15.427-5.327-24.01-5.327
				c-26.79,0-53.645,19.654-66.826,48.906c-1.765,3.881-4.441,5.766-8.182,5.766c-9.143,0-19.965-13.534-19.965-24.967
				c0-8.288,8.817-20.428,21.941-30.209c9.232-6.881,28.615-18.425,54.697-18.425c22.404,0,41.506,7.691,55.238,22.243
				c13.998,14.833,21.397,35.832,21.397,60.728c0,46.062-28.05,95.637-89.636,95.637h-2.633
				c-5.687,25.263-9.526,42.887-11.091,52.581C50.479,254.189,46.763,256.583,41.263,256.583z"/>
			<path fill="#FFFFFF" d="M77.935,20.262c44.337,0,75.339,31.005,75.339,81.674c0,45.336-27.671,94.341-88.34,94.341
				c-1.338,0-2.336,0-3.67,0c-5.332,23.672-9.666,43.339-11.334,53.67c-0.664,3.669-4.333,5.341-8.667,5.341
				c-7.335,0-16.002-4.338-16.002-11.334c0-15.672,3.669-34.337,6.67-52.006c-7.004-1.672-10.669-5.341-10.669-7.999
				c0-1.672,1.667-3.001,5.002-3.001c1.998,0,4.333,0.335,7.331,1.329c6.001-36,14.669-76.337,29.003-124.678
				c1.333-5.002,5.336-7,10-7c9.337,0,21.339,7.999,21.339,16.336c0,0.665,0,1.664-0.334,2.332
				c-9.671,35.335-20.336,77.344-29.004,113.009c38.336-10.665,64.339-58.333,64.339-101.341c0-13.666-2.336-27.002-7.669-38.67
				c-7.999-4.003-16.666-5.667-25-5.667c-26.337,0-54.338,19.333-68.008,49.67c-1.667,3.665-3.999,5.002-7,5.002
				c-7.999,0-18.668-12.337-18.668-23.671C2.593,52.931,34.597,20.262,77.935,20.262 M77.935,17.67C33.693,17.67,0,50.947,0,67.6
				c0,12.272,11.326,26.264,21.261,26.264c4.243,0,7.392-2.194,9.36-6.522c12.776-28.354,39.77-48.151,65.648-48.151
				c8.218,0,16.155,1.724,23.02,4.993c4.684,10.608,7.057,22.966,7.057,36.752c0,20.798-6.348,43.197-17.417,61.455
				c-10.718,17.678-25.045,30.308-40.715,36.006c9.374-38.403,19.453-77.605,27.838-108.252c0.479-1.148,0.479-2.423,0.479-3.209
				c0-10.017-13.383-18.929-23.932-18.929c-6.422,0-10.974,3.239-12.496,8.889c-12.543,42.304-21.649,81.188-28.585,122.1
				c-1.845-0.429-3.582-0.64-5.253-0.64c-5.247,0-7.595,2.81-7.595,5.594c0,3.936,4.136,7.801,10.314,9.854
				c-0.283,1.646-0.57,3.3-0.858,4.957c-2.683,15.452-5.458,31.43-5.458,45.193c0,8.603,9.652,13.927,18.595,13.927
				c6.085,0,10.384-2.863,11.218-7.472c1.547-9.579,5.3-26.842,10.856-51.539h1.596c28.616,0,52.454-10.766,68.936-31.131
				c13.979-17.273,21.997-41.257,21.997-65.803c0-25.233-7.521-46.54-21.75-61.617C120.132,25.502,100.705,17.67,77.935,17.67
				L77.935,17.67z"/>
		</g>
		<g>
			<path fill="#FFFFFF" d="M192.943,257.244c-21.286,0-31.633-16.888-31.633-51.63c0-17.715,2.588-40.006,7.693-66.254
				c7.341-39.677,15.581-71.22,24.487-93.74c11.632-29.411,24.794-44.324,39.123-44.324c6.313,0,11.643,3.469,14.227,6.985
				c9.551,5.58,15.074,13.123,15.074,34.653c0,45.751-24.401,129.773-64.27,129.773c-0.531,0-1.066-0.016-1.602-0.046
				c-2.743,17.697-4.133,31.471-4.133,40.951c0,13.813,3.601,19.708,12.039,19.708c16.855,0,37.136-25.205,48.845-48.623
				c2.25-4.967,5.034-5.715,6.491-5.715c1.806,0,3.628,1.535,3.628,4.966c0,1.563-0.408,3.101-1.065,5.074
				C250.425,217.394,221.523,257.244,192.943,257.244z M239.94,17.958c-10.986,8.874-31.303,82.022-41.759,141.904
				c25.642-24.558,42.471-92.989,42.471-129.599C240.651,25.698,240.407,21.488,239.94,17.958z"/>
			<path fill="#FFFFFF" d="M232.612,2.593c6.001,0,11.003,3.335,13.335,6.67c8.667,4.999,14.669,11.334,14.669,33.671
				c0,44.965-24.21,128.477-62.974,128.477c-0.893,0-1.789-0.044-2.698-0.134c-2.667,17.002-4.333,32.005-4.333,42.336
				c0,14.334,3.999,21.004,13.335,21.004c17.666,0,38.335-26.002,50.004-49.339c1.663-3.669,3.665-4.999,5.332-4.999
				c1.333,0,2.332,1.33,2.332,3.67c0,1.329-0.33,2.658-0.999,4.664c-10.335,25.668-39.004,67.335-67.673,67.335
				c-22.668,0-30.337-20.336-30.337-50.334c0-19.007,3-42.001,7.669-66.007C182.612,72.933,202.279,2.593,232.612,2.593
				 M196.278,163.279c27.001-22.008,45.67-94.011,45.67-133.016c0-5.333-0.334-10.335-0.999-14.335
				C228.946,19.598,206.613,102.271,196.278,163.279 M232.612,0c-8.024,0-15.696,4.366-22.801,12.975
				c-6.122,7.417-12.018,18.24-17.526,32.168c-8.937,22.598-17.2,54.221-24.559,93.992c-5.116,26.307-7.712,48.681-7.712,66.479
				c0,16.601,2.283,28.914,6.978,37.645c5.454,10.141,14.185,15.282,25.952,15.282c17.051,0,32.607-13.551,42.654-24.918
				c13.123-14.848,22.771-32.485,27.424-44.041l0.03-0.074l0.025-0.075c0.699-2.096,1.132-3.744,1.132-5.483
				c0-4.303-2.553-6.263-4.925-6.263c-1.764,0-5.103,0.843-7.672,6.475c-6.127,12.243-14.255,24.184-22.305,32.765
				c-9.266,9.878-18.035,15.099-25.36,15.099c-5.58,0-10.743-2.23-10.743-18.411c0-9.211,1.326-22.529,3.942-39.613
				c0.166,0.003,0.331,0.004,0.497,0.004c9.886,0,19.345-4.914,28.115-14.604c7.501-8.288,14.333-19.855,20.306-34.378
				c10.416-25.325,17.146-57.546,17.146-82.086c0-21.986-5.67-29.837-15.489-35.639C245.065,3.825,239.68,0,232.612,0L232.612,0z
				 M200.206,155.87c5.205-28.863,12.636-60.833,20.271-87.043c9.166-31.465,15.261-43.305,18.5-47.757
				c0.249,2.79,0.377,5.895,0.377,9.193c0,19.729-4.824,47.358-12.59,72.105C219.275,126.236,210.003,144.836,200.206,155.87
				L200.206,155.87z"/>
		</g>
		<g>
			<path fill="#FFFFFF" d="M340.957,256.249c-8.95,0-23.964-4.153-23.964-31.971c0-0.081,0-0.164,0-0.248
				c-10.885,20.562-22.652,32.219-32.71,32.219c-17.136,0-26.964-16.996-26.964-46.632c0-25.854,7.506-57.494,19.589-82.573
				c13.899-28.85,31.437-44.738,49.38-44.738c13.801,0,22.29,13.947,23.521,24.67h0.814c9.442,0,19.634,7.887,19.634,20.629
				c0,1.703,0,3.464-0.359,5.253c-3.532,16.615-7.474,32.257-10.952,46.058c-5.415,21.486-9.692,38.458-9.692,48.037
				c0,3.398,0.886,7.029,3.372,7.029c7.001,0,19.438-23.68,31.836-49.27c1.706-3.755,4.659-6.397,7.167-6.397
				c1.64,0,3.294,1.432,3.294,4.631c0,1.054-0.187,3.257-1.438,6.178l-0.433,1.087C375.607,234.031,358.08,256.249,340.957,256.249z
				 M331.291,104.235c-9.194,0-19.575,15.486-28.48,42.489c-7.591,23.016-12.893,51.48-12.893,69.221
				c0,9.561,1.593,15.044,4.371,15.044c10.736,0,25.384-29.088,34.071-67.661l10.634-47.862
				C338.965,107.596,336.657,104.235,331.291,104.235z"/>
			<path fill="#FFFFFF" d="M326.288,83.602c13.335,0,21.669,14.335,22.337,24.67h1.998c8.333,0,18.338,7,18.338,19.333
				c0,1.672,0,3.335-0.334,4.998c-9.002,42.344-20.67,78.344-20.67,94.35c0,4.998,1.667,8.325,4.668,8.325
				c7,0,17.335-17.661,33.003-50c1.667-3.669,4.334-5.667,6.001-5.667c0.999,0,1.998,1.003,1.998,3.335
				c0,1.337-0.334,3.335-1.333,5.667c-4.668,11.668-25.669,66.34-51.337,66.34c-10.335,0-22.668-5.666-22.668-30.675
				c0-1.663,0-3.995,0.334-6.335c-11.004,22.676-23.671,37.01-34.341,37.01c-18,0-25.668-19.341-25.668-45.336
				C258.615,158.941,287.953,83.602,326.288,83.602 M294.288,232.285c12.333,0,27.002-31.67,35.335-68.672l10.666-48.006
				c0-5.667-0.999-12.667-8.998-12.667c-22.338,0-42.67,78.009-42.67,113.006C288.621,225.95,290.285,232.285,294.288,232.285
				 M326.288,81.009c-18.469,0-36.42,16.149-50.548,45.471c-12.163,25.244-19.718,57.1-19.718,83.136
				c0,30.459,10.301,47.929,28.261,47.929c9.823,0,21.064-10.335,31.555-28.727c0.626,9.694,3.323,17.073,8.042,21.974
				c4.255,4.418,10.16,6.753,17.077,6.753c11.543,0,23.307-9.665,34.964-28.726c9.042-14.785,15.555-31.145,18.336-38.13
				l0.433-1.087c0.986-2.312,1.53-4.675,1.53-6.657c0-4.072-2.38-5.928-4.591-5.928c-2.993,0-6.421,2.941-8.347,7.156
				c-8.599,17.746-14.64,29.105-19.589,36.832c-6.751,10.541-9.989,11.679-11.068,11.679c-1.203,0-2.075-2.411-2.075-5.732
				c0-9.418,4.26-26.321,9.653-47.721c3.481-13.812,7.426-29.465,10.96-46.09c0.391-1.944,0.391-3.771,0.391-5.537
				c0-13.401-10.639-21.749-20.614-21.923C349.189,94.636,340.358,81.009,326.288,81.009L326.288,81.009z M294.288,229.692
				c-1.063,0-3.074-2.873-3.074-13.747c0-17.618,5.275-45.915,12.828-68.814c8.591-26.048,18.778-41.599,27.25-41.599
				c3.801,0,6.348,1.676,6.404,9.795l-10.603,47.724C317.698,204.762,303.035,229.692,294.288,229.692L294.288,229.692z"/>
		</g>
		<g>
			<path fill="#FFFFFF" d="M405.964,256.249c-7.606,0-25.297-3.472-25.297-35.632c0-21.125,7.712-66.356,19.683-115.528
				l-9.175-0.859c-4.152-0.347-6.843-4.387-6.843-10.292c0-5.717,2.729-11.631,7.297-11.631c4.765,0,9.682,0,14.688,0.275
				c4.621-17.297,8.357-30.298,12.081-42.04c1.699-5.775,7.273-9.238,14.902-9.238c9.259,0,18.632,6.17,18.632,17.963
				c0,6.602-2.941,16.697-6.055,27.384c-0.748,2.566-1.517,5.205-2.24,7.788l0.762,0.062c19.501,1.573,30.535,2.725,30.535,8.104
				c0,5.487-10.724,8.936-36.959,11.858c-1.1,3.818-2.221,7.691-3.353,11.598c-11.575,39.981-24.695,85.297-24.695,106.889
				c0,8.43,1.92,12.704,5.708,12.704c9.479,0,22.634-23.523,31.339-39.09c2.52-4.505,4.899-8.761,6.896-11.97
				c2.375-4.07,4.346-6.612,6.768-6.612c1.806,0,3.628,1.535,3.628,4.965c0,1.059-0.187,3.268-1.439,6.179
				C456.542,204.848,433.829,256.249,405.964,256.249z"/>
			<path fill="#FFFFFF" d="M433.3,32.599c8.333,0,17.335,5.333,17.335,16.667c0,8.333-4.999,23.002-8.667,36.338
				c16.336,1.329,31.67,2.332,31.67,7c0,4.664-12.333,7.999-36.668,10.666c-12.667,44.002-28.339,95.674-28.339,119.679
				c0,8.668,2.001,14,7.004,14c12.998,0,30.002-36.668,39.335-51.671c2.332-3.995,4-6.001,5.667-6.001
				c1.333,0,2.332,1.337,2.332,3.669c0,1.337-0.331,3.335-1.333,5.667c-4.664,11.668-27.666,66.34-55.671,66.34
				c-13.001,0-24.001-9.336-24.001-34.336c0-22.008,8.333-69.007,20.001-116.679l-10.669-0.999c-4-0.334-5.667-4.668-5.667-9.002
				c0-5.002,2.336-10.335,6.001-10.335c5.003,0,10.335,0,15.668,0.334c4-15.003,8.003-29.338,12.337-43.004
				C421.302,35.266,426.969,32.599,433.3,32.599 M433.3,30.006c-8.102,0-14.285,3.895-16.145,10.167
				c-3.654,11.524-7.32,24.258-11.819,41.06c-4.676-0.223-9.257-0.223-13.707-0.223c-5.379,0-8.594,6.573-8.594,12.928
				c0,6.63,3.158,11.177,8.044,11.585l7.657,0.717c-11.791,48.699-19.366,93.367-19.366,114.377
				c0,33.33,18.598,36.929,26.594,36.929c12.79,0,25.832-10.085,38.762-29.974c9.314-14.326,16.088-29.924,19.304-37.966
				c1.332-3.109,1.531-5.506,1.531-6.66c0-4.302-2.553-6.262-4.924-6.262c-3.048,0-5.202,2.659-7.887,7.255
				c-2.008,3.23-4.388,7.486-6.907,11.991c-8.037,14.372-21.488,38.426-30.208,38.426c-3.646,0-4.412-6.203-4.412-11.407
				c0-21.407,13.093-66.629,24.645-106.528c1.049-3.624,2.09-7.218,3.113-10.767c11.719-1.331,20.288-2.797,26.161-4.475
				c4.76-1.36,11.089-3.729,11.089-8.575c0-6.448-10.597-7.683-30.918-9.331c0.593-2.088,1.208-4.198,1.809-6.261
				c3.141-10.778,6.106-20.959,6.106-27.747C453.228,36.622,443.203,30.006,433.3,30.006L433.3,30.006z"/>
		</g>
		<g>
			<path fill="#FFFFFF" d="M494.639,256.583c-14.001,0-24.774-5.912-32.021-17.572c-6.289-10.118-9.613-24.434-9.613-41.396
				c0-24.93,7.049-53.427,18.855-76.23c13.048-25.201,29.425-39.079,46.115-39.079c7.41,0,15.187,2.29,19.528,5.724
				c13.417,1.793,21.102,13.399,21.102,31.911c0,16.573-6.377,36.206-16.644,51.236c-11.923,17.453-27.545,27.065-43.988,27.065
				c-3.621,0-7.516-0.54-11.362-1.57c0.157,16.379,2.772,36.984,20.698,36.984c27.133,0,43.158-27.079,52.733-43.258
				c1.32-2.231,2.461-4.159,3.512-5.814c2.175-3.633,4.163-5.266,6.427-5.266c2.103,0,3.628,1.947,3.628,4.631
				c0,1.553-0.389,3.38-1.096,5.146c-8.283,20.627-18.339,36.706-29.887,47.792C529.013,249.957,512.868,256.583,494.639,256.583z
				 M487.379,184.943c0.37,0.042,0.753,0.042,1.258,0.042c18.322,0,46.706-51.41,46.706-77.382c0-6.892-1.267-9.703-4.37-9.703
				c-8.247,0-18.072,10.547-26.957,28.938C495.631,144.192,489.447,165.822,487.379,184.943z"/>
			<path fill="#FFFFFF" d="M517.975,83.602c7.33,0,15.004,2.332,18.998,5.667c14.001,1.667,20.336,14.335,20.336,30.671
				c0,32.005-24.004,77.006-59.336,77.006c-4.004,0-8.333-0.669-12.667-1.997c0,14.668,1.329,40.003,22.003,40.003
				c31.67,0,48.664-36.008,57.34-49.674c1.997-3.335,3.66-4.664,5.332-4.664c1.329,0,2.332,1.329,2.332,3.335
				c0,1.329-0.334,2.992-1.003,4.664c-14.995,37.337-38.331,66.675-76.671,66.675c-28.67,0-40.338-26.003-40.338-57.673
				C454.301,147.941,482.97,83.602,517.975,83.602 M488.637,186.281c19.668,0,48.002-52.675,48.002-78.678c0-5.333-0.66-11-5.666-11
				c-19,0-40.998,49.339-45.002,89.343C486.969,186.281,487.638,186.281,488.637,186.281 M517.975,81.009
				c-17.198,0-33.984,14.127-47.266,39.779c-11.898,22.979-19,51.699-19,76.826c0,17.205,3.392,31.757,9.809,42.081
				c7.394,11.896,18.847,18.185,33.122,18.185c18.574,0,35.021-6.749,48.885-20.059c11.682-11.215,21.84-27.446,30.191-48.243
				c0.769-1.918,1.19-3.917,1.19-5.63c0-3.435-2.071-5.928-4.925-5.928c-3.54,0-5.888,3.145-7.539,5.896
				c-1.057,1.667-2.196,3.593-3.516,5.821c-9.434,15.94-25.224,42.621-51.617,42.621c-16.198,0-19.06-18.508-19.377-34.021
				c3.411,0.789,6.829,1.201,10.041,1.201c16.885,0,32.887-9.813,45.059-27.632c10.405-15.233,16.87-35.146,16.87-51.967
				c0-8.884-1.834-16.559-5.303-22.195c-3.773-6.131-9.493-9.906-16.575-10.951C533.417,83.313,525.497,81.009,517.975,81.009
				L517.975,81.009z M488.825,183.686c4.771-40.774,26.404-84.49,42.148-84.49c0.998,0,3.073,0,3.073,8.407
				c0,11.833-6.54,31.037-16.274,47.787C507.708,172.707,496.642,183.516,488.825,183.686L488.825,183.686z"/>
		</g>
	</g>
</g>
</svg>
